<svg width="59" height="59" viewBox="0 0 59 59" fill="none" xmlns="http://www.w3.org/2000/svg">
<path d="M57.82 7.85437C57.2669 6.39781 55.9394 4.35125 54.0588 2.89469C52.9525 2.065 51.6987 1.25375 49.9287 0.7375C48.0112 0.184375 45.6513 0 42.775 0H16.225C13.3303 0 10.9888 0.184375 9.08969 0.755937C7.31969 1.29062 6.01062 2.08344 4.94125 2.91312C3.06062 4.35125 1.73312 6.41625 1.16156 7.87281C0.0184374 10.8044 0 14.1231 0 16.225V42.775C0 44.8769 0.0184374 48.1956 1.16156 51.1456C1.73312 52.6022 3.06062 54.6487 4.94125 56.1053C6.02906 56.935 7.31969 57.7463 9.08969 58.2625C10.9888 58.8156 13.3303 59 16.225 59H42.775C45.6697 59 48.0113 58.8156 49.9103 58.2441C51.6803 57.7094 52.9894 56.9166 54.0588 56.0869C55.9394 54.6488 57.2669 52.5837 57.8384 51.1272C59 48.1956 59 44.8584 59 42.7566V16.2066C59 14.1047 58.9816 10.7859 57.8384 7.83594L57.82 7.85437ZM11.6894 40.5625H9.49531V27.4534H11.6894V40.5625ZM10.6016 25.2409C9.86406 25.2409 9.23719 24.6325 9.23719 23.8766C9.23719 23.1206 9.84563 22.5122 10.6016 22.5122C11.3575 22.5122 11.9844 23.1206 11.9844 23.8766C11.9659 24.6325 11.3575 25.2409 10.6016 25.2409ZM23.7844 40.8944C17.995 40.8944 14.3444 36.7644 14.3444 30.1822C14.3444 23.6 17.995 19.4516 23.7844 19.4516C29.5738 19.4516 33.2244 23.6 33.2244 30.1822C33.2244 36.7644 29.5738 40.8944 23.7844 40.8944ZM42.8856 40.8944C38.5344 40.8944 35.4738 38.4975 35.2709 34.9206H37.2438C37.465 37.4097 39.8066 39.1059 43.07 39.1059C46.1859 39.1059 48.4169 37.4097 48.4169 35.0681C48.4169 33.1322 47.0709 31.9706 43.9919 31.1962L41.4106 30.5325C37.5572 29.5553 35.8425 27.9328 35.8425 25.1856C35.8425 21.83 38.8663 19.4331 42.9594 19.4331C47.0156 19.4331 49.9656 21.83 50.0947 25.1303H48.1219C47.9375 22.7888 45.8541 21.2216 42.9041 21.2216C40.0278 21.2216 37.8891 22.8256 37.8891 25.1119C37.8891 26.9003 39.1797 27.9513 42.2403 28.7256L44.4897 29.2972C48.675 30.3481 50.4266 31.9522 50.4266 34.8469C50.4266 38.4975 47.495 40.8944 42.8856 40.8944ZM31.2147 30.1822C31.2147 35.6213 28.3384 39.0691 23.7844 39.0691C19.2303 39.0691 16.3725 35.6213 16.3725 30.1822C16.3725 24.7247 19.2303 21.2769 23.7844 21.2769C28.3384 21.2769 31.2147 24.7247 31.2147 30.1822Z" fill="white"/>
</svg>
